<?xml version="1.0" encoding="UTF-8" standalone="no"?>
<!DOCTYPE svg PUBLIC "-//W3C//DTD SVG 1.1//EN"
 "http://www.w3.org/Graphics/SVG/1.1/DTD/svg11.dtd">
<!-- Generated by graphviz version 2.24.0 (20090616.2323)
 -->
<!-- Title: GRAPH_0 Pages: 1 -->
<svg width="2338pt" height="132pt"
 viewBox="0.00 0.00 2338.00 132.00" xmlns="http://www.w3.org/2000/svg" xmlns:xlink="http://www.w3.org/1999/xlink">
<g id="graph1" class="graph" transform="scale(1 1) rotate(0) translate(4 128)">
<title>GRAPH_0</title>
<polygon fill="white" stroke="white" points="-4,5 -4,-128 2335,-128 2335,5 -4,5"/>
<!-- #START# -->
<g id="node1" class="node"><title>#START#</title>
<ellipse fill="white" stroke="black" cx="27" cy="-35" rx="27" ry="18"/>
<text text-anchor="middle" x="27" y="-30.6" font-family="Times,serif" font-size="11.00">#</text>
</g>
<!-- n1 -->
<g id="node2" class="node"><title>n1</title>
<ellipse fill="white" stroke="black" cx="163" cy="-35" rx="27" ry="18"/>
<text text-anchor="middle" x="163" y="-30.6" font-family="Times,serif" font-size="11.00">when</text>
</g>
<!-- #START#&#45;&gt;n1 -->
<g id="edge2" class="edge"><title>#START#&#45;&gt;n1</title>
<path fill="none" stroke="#000000" d="M54.1948,-35C74.6717,-35 102.983,-35 125.593,-35"/>
<polygon fill="#000000" stroke="#000000" points="135.852,-35 125.852,-39.5001 130.852,-35 125.852,-35.0001 125.852,-35.0001 125.852,-35.0001 130.852,-35 125.852,-30.5001 135.852,-35 135.852,-35"/>
<text text-anchor="middle" x="95" y="-36.4" font-family="Times,serif" font-size="14.00" fill="#000000">A, C, B</text>
</g>
<!-- n2 -->
<g id="node12" class="node"><title>n2</title>
<ellipse fill="white" stroke="black" cx="265" cy="-64" rx="27" ry="18"/>
<text text-anchor="middle" x="265" y="-59.6" font-family="Times,serif" font-size="11.00">april</text>
</g>
<!-- n1&#45;&gt;n2 -->
<g id="edge4" class="edge"><title>n1&#45;&gt;n2</title>
<path fill="none" stroke="#000000" d="M187.952,-42.0942C200.671,-45.7104 216.345,-50.1667 230.228,-54.1137"/>
<polygon fill="#000000" stroke="#000000" points="239.952,-56.8785 229.103,-58.4722 235.143,-55.5111 230.333,-54.1437 230.333,-54.1437 230.333,-54.1437 235.143,-55.5111 231.564,-49.8152 239.952,-56.8785 239.952,-56.8785"/>
<text text-anchor="middle" x="214" y="-51.4" font-family="Times,serif" font-size="14.00" fill="#000000">A</text>
</g>
<!-- n5 -->
<g id="node22" class="node"><title>n5</title>
<ellipse fill="white" stroke="black" cx="576" cy="-36" rx="31.7878" ry="18"/>
<text text-anchor="middle" x="576" y="-31.6" font-family="Times,serif" font-size="11.00">showers</text>
</g>
<!-- n1&#45;&gt;n5 -->
<g id="edge6" class="edge"><title>n1&#45;&gt;n5</title>
<path fill="none" stroke="#000000" d="M187.91,-27.7084C208.415,-22.3503 238.341,-16 265,-16 265,-16 265,-16 469,-16 491.957,-16 517.22,-20.5033 537.431,-25.2362"/>
<polygon fill="#000000" stroke="#000000" points="547.207,-27.6341 536.423,-29.6222 542.351,-26.4429 537.495,-25.2518 537.495,-25.2518 537.495,-25.2518 542.351,-26.4429 538.567,-20.8813 547.207,-27.6341 547.207,-27.6341"/>
<text text-anchor="middle" x="367" y="-17.4" font-family="Times,serif" font-size="14.00" fill="#000000">C, B</text>
</g>
<!-- n11 -->
<g id="node3" class="node"><title>n11</title>
<ellipse fill="white" stroke="black" cx="971" cy="-70" rx="27" ry="18"/>
<text text-anchor="middle" x="971" y="-65.6" font-family="Times,serif" font-size="11.00">april</text>
</g>
<!-- n12 -->
<g id="node4" class="node"><title>n12</title>
<ellipse fill="white" stroke="black" cx="1089" cy="-40" rx="27" ry="18"/>
<text text-anchor="middle" x="1089" y="-35.6" font-family="Times,serif" font-size="11.00">fruit</text>
</g>
<!-- n11&#45;&gt;n12 -->
<g id="edge22" class="edge"><title>n11&#45;&gt;n12</title>
<path fill="none" stroke="#000000" d="M996.314,-63.5642C1013.11,-59.2934 1035.39,-53.6296 1053.89,-48.9251"/>
<polygon fill="#000000" stroke="#000000" points="1063.73,-46.4251 1055.15,-53.2504 1058.88,-47.6571 1054.04,-48.8892 1054.04,-48.8892 1054.04,-48.8892 1058.88,-47.6571 1052.93,-44.5279 1063.73,-46.4251 1063.73,-46.4251"/>
<text text-anchor="middle" x="1030" y="-58.4" font-family="Times,serif" font-size="14.00" fill="#000000">C, B</text>
</g>
<!-- n13 -->
<g id="node5" class="node"><title>n13</title>
<ellipse fill="white" stroke="black" cx="1225" cy="-40" rx="27" ry="18"/>
<text text-anchor="middle" x="1225" y="-35.6" font-family="Times,serif" font-size="11.00">the</text>
</g>
<!-- n12&#45;&gt;n13 -->
<g id="edge24" class="edge"><title>n12&#45;&gt;n13</title>
<path fill="none" stroke="#000000" d="M1116.19,-40C1136.67,-40 1164.98,-40 1187.59,-40"/>
<polygon fill="#000000" stroke="#000000" points="1197.85,-40 1187.85,-44.5001 1192.85,-40 1187.85,-40.0001 1187.85,-40.0001 1187.85,-40.0001 1192.85,-40 1187.85,-35.5001 1197.85,-40 1197.85,-40"/>
<text text-anchor="middle" x="1157" y="-41.4" font-family="Times,serif" font-size="14.00" fill="#000000">A, C, B</text>
</g>
<!-- n14 -->
<g id="node6" class="node"><title>n14</title>
<ellipse fill="white" stroke="black" cx="1349" cy="-72" rx="30.1087" ry="18"/>
<text text-anchor="middle" x="1349" y="-67.6" font-family="Times,serif" font-size="11.00">drought</text>
</g>
<!-- n13&#45;&gt;n14 -->
<g id="edge26" class="edge"><title>n13&#45;&gt;n14</title>
<path fill="none" stroke="#000000" d="M1250.39,-46.5529C1267.89,-51.0685 1291.45,-57.1481 1311.15,-62.2326"/>
<polygon fill="#000000" stroke="#000000" points="1321.05,-64.7871 1310.24,-66.6455 1316.21,-63.5377 1311.37,-62.2882 1311.37,-62.2882 1311.37,-62.2882 1316.21,-63.5377 1312.49,-57.931 1321.05,-64.7871 1321.05,-64.7871"/>
<text text-anchor="middle" x="1285" y="-59.4" font-family="Times,serif" font-size="14.00" fill="#000000">A, C</text>
</g>
<!-- n15 -->
<g id="node7" class="node"><title>n15</title>
<ellipse fill="white" stroke="black" cx="1349" cy="-18" rx="27" ry="18"/>
<text text-anchor="middle" x="1349" y="-13.6" font-family="Times,serif" font-size="11.00">march</text>
</g>
<!-- n13&#45;&gt;n15 -->
<g id="edge28" class="edge"><title>n13&#45;&gt;n15</title>
<path fill="none" stroke="#000000" d="M1251.15,-34.6132C1257.32,-33.3848 1263.89,-32.1141 1270,-31 1283.81,-28.4833 1299.02,-25.9289 1312.38,-23.7583"/>
<polygon fill="#000000" stroke="#000000" points="1322.63,-22.1079 1313.47,-28.1403 1317.69,-22.9027 1312.75,-23.6975 1312.75,-23.6975 1312.75,-23.6975 1317.69,-22.9027 1312.04,-19.2547 1322.63,-22.1079 1322.63,-22.1079"/>
<text text-anchor="middle" x="1285" y="-32.4" font-family="Times,serif" font-size="14.00" fill="#000000">B</text>
</g>
<!-- n16 -->
<g id="node8" class="node"><title>n16</title>
<ellipse fill="white" stroke="black" cx="1473" cy="-46" rx="27" ry="18"/>
<text text-anchor="middle" x="1473" y="-41.6" font-family="Times,serif" font-size="11.00">of</text>
</g>
<!-- n14&#45;&gt;n16 -->
<g id="edge30" class="edge"><title>n14&#45;&gt;n16</title>
<path fill="none" stroke="#000000" d="M1377.76,-65.9697C1395.39,-62.2738 1418.1,-57.5107 1436.93,-53.5634"/>
<polygon fill="#000000" stroke="#000000" points="1446.93,-51.4663 1438.07,-57.9228 1442.04,-52.4924 1437.14,-53.5185 1437.14,-53.5185 1437.14,-53.5185 1442.04,-52.4924 1436.22,-49.1143 1446.93,-51.4663 1446.93,-51.4663"/>
<text text-anchor="middle" x="1413" y="-62.4" font-family="Times,serif" font-size="14.00" fill="#000000">A, C</text>
</g>
<!-- n15&#45;&gt;n16 -->
<g id="edge32" class="edge"><title>n15&#45;&gt;n16</title>
<path fill="none" stroke="#000000" d="M1374.69,-23.8016C1392.82,-27.8938 1417.33,-33.4289 1437.34,-37.9481"/>
<polygon fill="#000000" stroke="#000000" points="1447.34,-40.2058 1436.59,-42.3926 1442.46,-39.1045 1437.59,-38.0031 1437.59,-38.0031 1437.59,-38.0031 1442.46,-39.1045 1438.58,-33.6136 1447.34,-40.2058 1447.34,-40.2058"/>
<text text-anchor="middle" x="1413" y="-36.4" font-family="Times,serif" font-size="14.00" fill="#000000">B</text>
</g>
<!-- n17 -->
<g id="node9" class="node"><title>n17</title>
<ellipse fill="white" stroke="black" cx="1597" cy="-78" rx="27" ry="18"/>
<text text-anchor="middle" x="1597" y="-73.6" font-family="Times,serif" font-size="11.00">march</text>
</g>
<!-- n16&#45;&gt;n17 -->
<g id="edge34" class="edge"><title>n16&#45;&gt;n17</title>
<path fill="none" stroke="#000000" d="M1498.39,-52.5529C1516.7,-57.2769 1541.64,-63.7127 1561.85,-68.93"/>
<polygon fill="#000000" stroke="#000000" points="1571.64,-71.4559 1560.83,-73.3143 1566.8,-70.2064 1561.96,-68.957 1561.96,-68.957 1561.96,-68.957 1566.8,-70.2064 1563.08,-64.5998 1571.64,-71.4559 1571.64,-71.4559"/>
<text text-anchor="middle" x="1533" y="-65.4" font-family="Times,serif" font-size="14.00" fill="#000000">A, C</text>
</g>
<!-- n18 -->
<g id="node10" class="node"><title>n18</title>
<ellipse fill="white" stroke="black" cx="1597" cy="-24" rx="30.1087" ry="18"/>
<text text-anchor="middle" x="1597" y="-19.6" font-family="Times,serif" font-size="11.00">drought</text>
</g>
<!-- n16&#45;&gt;n18 -->
<g id="edge36" class="edge"><title>n16&#45;&gt;n18</title>
<path fill="none" stroke="#000000" d="M1499.15,-40.6132C1505.32,-39.3848 1511.89,-38.1141 1518,-37 1530.71,-34.6834 1544.61,-32.3349 1557.16,-30.2832"/>
<polygon fill="#000000" stroke="#000000" points="1567.32,-28.6367 1558.17,-34.6778 1562.39,-29.4362 1557.45,-30.2357 1557.45,-30.2357 1557.45,-30.2357 1562.39,-29.4362 1556.73,-25.7936 1567.32,-28.6367 1567.32,-28.6367"/>
<text text-anchor="middle" x="1533" y="-38.4" font-family="Times,serif" font-size="14.00" fill="#000000">B</text>
</g>
<!-- n19 -->
<g id="node11" class="node"><title>n19</title>
<ellipse fill="white" stroke="black" cx="1721" cy="-52" rx="27" ry="18"/>
<text text-anchor="middle" x="1721" y="-47.6" font-family="Times,serif" font-size="11.00">has</text>
</g>
<!-- n17&#45;&gt;n19 -->
<g id="edge38" class="edge"><title>n17&#45;&gt;n19</title>
<path fill="none" stroke="#000000" d="M1622.99,-72.5495C1641.02,-68.7708 1665.25,-63.6897 1685.11,-59.5255"/>
<polygon fill="#000000" stroke="#000000" points="1695.04,-57.4433 1686.18,-63.8997 1690.15,-58.4694 1685.25,-59.4955 1685.25,-59.4955 1685.25,-59.4955 1690.15,-58.4694 1684.33,-55.0913 1695.04,-57.4433 1695.04,-57.4433"/>
<text text-anchor="middle" x="1661" y="-68.4" font-family="Times,serif" font-size="14.00" fill="#000000">A, C</text>
</g>
<!-- n18&#45;&gt;n19 -->
<g id="edge40" class="edge"><title>n18&#45;&gt;n19</title>
<path fill="none" stroke="#000000" d="M1625.76,-30.4941C1643.59,-34.5202 1666.63,-39.7221 1685.58,-44.0012"/>
<polygon fill="#000000" stroke="#000000" points="1695.34,-46.2069 1684.6,-48.3937 1690.47,-45.1055 1685.59,-44.0042 1685.59,-44.0042 1685.59,-44.0042 1690.47,-45.1055 1686.58,-39.6147 1695.34,-46.2069 1695.34,-46.2069"/>
<text text-anchor="middle" x="1661" y="-42.4" font-family="Times,serif" font-size="14.00" fill="#000000">B</text>
</g>
<!-- n20 -->
<g id="node13" class="node"><title>n20</title>
<ellipse fill="white" stroke="black" cx="1860" cy="-52" rx="28.9343" ry="18"/>
<text text-anchor="middle" x="1860" y="-47.6" font-family="Times,serif" font-size="11.00">pierced</text>
</g>
<!-- n19&#45;&gt;n20 -->
<g id="edge42" class="edge"><title>n19&#45;&gt;n20</title>
<path fill="none" stroke="#000000" d="M1748.13,-52C1768.55,-52 1796.85,-52 1819.88,-52"/>
<polygon fill="#000000" stroke="#000000" points="1830.05,-52 1820.05,-56.5001 1825.05,-52 1820.05,-52.0001 1820.05,-52.0001 1820.05,-52.0001 1825.05,-52 1820.05,-47.5001 1830.05,-52 1830.05,-52"/>
<text text-anchor="middle" x="1789" y="-53.4" font-family="Times,serif" font-size="14.00" fill="#000000">A, C, B</text>
</g>
<!-- n3 -->
<g id="node20" class="node"><title>n3</title>
<ellipse fill="white" stroke="black" cx="367" cy="-66" rx="27" ry="18"/>
<text text-anchor="middle" x="367" y="-61.6" font-family="Times,serif" font-size="11.00">with</text>
</g>
<!-- n2&#45;&gt;n3 -->
<g id="edge8" class="edge"><title>n2&#45;&gt;n3</title>
<path fill="none" stroke="#000000" d="M292.066,-64.5307C303.594,-64.7567 317.231,-65.0241 329.69,-65.2684"/>
<polygon fill="#000000" stroke="#000000" points="339.807,-65.4668 329.721,-69.7698 334.808,-65.3687 329.809,-65.2707 329.809,-65.2707 329.809,-65.2707 334.808,-65.3687 329.897,-60.7715 339.807,-65.4668 339.807,-65.4668"/>
<text text-anchor="middle" x="316" y="-66.4" font-family="Times,serif" font-size="14.00" fill="#000000">A</text>
</g>
<!-- n21 -->
<g id="node14" class="node"><title>n21</title>
<ellipse fill="white" stroke="black" cx="1965" cy="-106" rx="27" ry="18"/>
<text text-anchor="middle" x="1965" y="-101.6" font-family="Times,serif" font-size="11.00">unto</text>
</g>
<!-- n20&#45;&gt;n21 -->
<g id="edge46" class="edge"><title>n20&#45;&gt;n21</title>
<path fill="none" stroke="#000000" d="M1882.78,-63.7172C1897.81,-71.4444 1917.68,-81.6617 1934.12,-90.1168"/>
<polygon fill="#000000" stroke="#000000" points="1943.34,-94.8593 1932.39,-94.2875 1938.89,-92.5725 1934.44,-90.2857 1934.44,-90.2857 1934.44,-90.2857 1938.89,-92.5725 1936.5,-86.2839 1943.34,-94.8593 1943.34,-94.8593"/>
<text text-anchor="middle" x="1914" y="-83.4" font-family="Times,serif" font-size="14.00" fill="#000000">A</text>
</g>
<!-- n22 -->
<g id="node15" class="node"><title>n22</title>
<ellipse fill="white" stroke="black" cx="1965" cy="-52" rx="27" ry="18"/>
<text text-anchor="middle" x="1965" y="-47.6" font-family="Times,serif" font-size="11.00">to</text>
</g>
<!-- n20&#45;&gt;n22 -->
<g id="edge44" class="edge"><title>n20&#45;&gt;n22</title>
<path fill="none" stroke="#000000" d="M1889.53,-52C1901.37,-52 1915.17,-52 1927.69,-52"/>
<polygon fill="#000000" stroke="#000000" points="1937.85,-52 1927.85,-56.5001 1932.85,-52 1927.85,-52.0001 1927.85,-52.0001 1927.85,-52.0001 1932.85,-52 1927.85,-47.5001 1937.85,-52 1937.85,-52"/>
<text text-anchor="middle" x="1914" y="-53.4" font-family="Times,serif" font-size="14.00" fill="#000000">B</text>
</g>
<!-- n23 -->
<g id="node16" class="node"><title>n23</title>
<ellipse fill="white" stroke="black" cx="2067" cy="-52" rx="27" ry="18"/>
<text text-anchor="middle" x="2067" y="-47.6" font-family="Times,serif" font-size="11.00">the</text>
</g>
<!-- n20&#45;&gt;n23 -->
<g id="edge48" class="edge"><title>n20&#45;&gt;n23</title>
<path fill="none" stroke="#000000" d="M1879.44,-38.3549C1894.61,-28.5916 1916.61,-16.2788 1938,-11 1961.3,-5.24911 1968.75,-5.05904 1992,-11 2009.1,-15.3693 2026.5,-24.5295 2040.23,-33.0854"/>
<polygon fill="#000000" stroke="#000000" points="2048.68,-38.5641 2037.85,-36.9011 2044.49,-35.8445 2040.29,-33.1249 2040.29,-33.1249 2040.29,-33.1249 2044.49,-35.8445 2042.74,-29.3488 2048.68,-38.5641 2048.68,-38.5641"/>
<text text-anchor="middle" x="1965" y="-12.4" font-family="Times,serif" font-size="14.00" fill="#000000">C</text>
</g>
<!-- n21&#45;&gt;n23 -->
<g id="edge50" class="edge"><title>n21&#45;&gt;n23</title>
<path fill="none" stroke="#000000" d="M1986.63,-94.548C2001.2,-86.8357 2020.62,-76.556 2036.72,-68.0329"/>
<polygon fill="#000000" stroke="#000000" points="2045.75,-63.2503 2039.02,-71.9063 2041.33,-65.5898 2036.91,-67.9293 2036.91,-67.9293 2036.91,-67.9293 2041.33,-65.5898 2034.81,-63.9522 2045.75,-63.2503 2045.75,-63.2503"/>
<text text-anchor="middle" x="2016" y="-81.4" font-family="Times,serif" font-size="14.00" fill="#000000">A</text>
</g>
<!-- n22&#45;&gt;n23 -->
<g id="edge52" class="edge"><title>n22&#45;&gt;n23</title>
<path fill="none" stroke="#000000" d="M1992.07,-52C2003.59,-52 2017.23,-52 2029.69,-52"/>
<polygon fill="#000000" stroke="#000000" points="2039.81,-52 2029.81,-56.5001 2034.81,-52 2029.81,-52.0001 2029.81,-52.0001 2029.81,-52.0001 2034.81,-52 2029.81,-47.5001 2039.81,-52 2039.81,-52"/>
<text text-anchor="middle" x="2016" y="-53.4" font-family="Times,serif" font-size="14.00" fill="#000000">B</text>
</g>
<!-- n25 -->
<g id="node17" class="node"><title>n25</title>
<ellipse fill="white" stroke="black" cx="2185" cy="-84" rx="27" ry="18"/>
<text text-anchor="middle" x="2185" y="-79.6" font-family="Times,serif" font-size="11.00">rood</text>
</g>
<!-- n23&#45;&gt;n25 -->
<g id="edge56" class="edge"><title>n23&#45;&gt;n25</title>
<path fill="none" stroke="#000000" d="M2092.02,-58.7864C2108.81,-63.3374 2131.15,-69.3971 2149.73,-74.4353"/>
<polygon fill="#000000" stroke="#000000" points="2159.6,-77.1131 2148.78,-78.8388 2154.78,-75.8044 2149.95,-74.4957 2149.95,-74.4957 2149.95,-74.4957 2154.78,-75.8044 2151.13,-70.1526 2159.6,-77.1131 2159.6,-77.1131"/>
<text text-anchor="middle" x="2126" y="-71.4" font-family="Times,serif" font-size="14.00" fill="#000000">C</text>
</g>
<!-- n26 -->
<g id="node18" class="node"><title>n26</title>
<ellipse fill="white" stroke="black" cx="2185" cy="-30" rx="27" ry="18"/>
<text text-anchor="middle" x="2185" y="-25.6" font-family="Times,serif" font-size="11.00">root</text>
</g>
<!-- n23&#45;&gt;n26 -->
<g id="edge54" class="edge"><title>n23&#45;&gt;n26</title>
<path fill="none" stroke="#000000" d="M2093.16,-46.6714C2099.33,-45.4406 2105.89,-44.1542 2112,-43 2123.94,-40.744 2136.99,-38.3849 2148.72,-36.3052"/>
<polygon fill="#000000" stroke="#000000" points="2158.62,-34.5591 2149.55,-40.7273 2153.7,-35.4274 2148.77,-36.2957 2148.77,-36.2957 2148.77,-36.2957 2153.7,-35.4274 2147.99,-31.864 2158.62,-34.5591 2158.62,-34.5591"/>
<text text-anchor="middle" x="2126" y="-44.4" font-family="Times,serif" font-size="14.00" fill="#000000">A, B</text>
</g>
<!-- n27 -->
<g id="node19" class="node"><title>n27</title>
<ellipse fill="white" stroke="black" cx="2303" cy="-58" rx="27" ry="18"/>
<text text-anchor="middle" x="2303" y="-53.6" font-family="Times,serif" font-size="11.00">#</text>
</g>
<!-- n25&#45;&gt;n27 -->
<g id="edge58" class="edge"><title>n25&#45;&gt;n27</title>
<path fill="none" stroke="#000000" d="M2210.9,-78.2942C2227.42,-74.6535 2249.06,-69.8842 2267.22,-65.884"/>
<polygon fill="#000000" stroke="#000000" points="2277.16,-63.6925 2268.37,-70.2389 2272.28,-64.7684 2267.4,-65.8444 2267.4,-65.8444 2267.4,-65.8444 2272.28,-64.7684 2266.43,-61.4498 2277.16,-63.6925 2277.16,-63.6925"/>
<text text-anchor="middle" x="2244" y="-74.4" font-family="Times,serif" font-size="14.00" fill="#000000">C</text>
</g>
<!-- n26&#45;&gt;n27 -->
<g id="edge60" class="edge"><title>n26&#45;&gt;n27</title>
<path fill="none" stroke="#000000" d="M2210.6,-36.0756C2227.3,-40.0383 2249.33,-45.264 2267.68,-49.6196"/>
<polygon fill="#000000" stroke="#000000" points="2277.45,-51.9363 2266.68,-54.0058 2272.58,-50.7818 2267.72,-49.6274 2267.72,-49.6274 2267.72,-49.6274 2272.58,-50.7818 2268.75,-45.249 2277.45,-51.9363 2277.45,-51.9363"/>
<text text-anchor="middle" x="2244" y="-47.4" font-family="Times,serif" font-size="14.00" fill="#000000">A, B</text>
</g>
<!-- n4 -->
<g id="node21" class="node"><title>n4</title>
<ellipse fill="white" stroke="black" cx="469" cy="-63" rx="27" ry="18"/>
<text text-anchor="middle" x="469" y="-58.6" font-family="Times,serif" font-size="11.00">his</text>
</g>
<!-- n3&#45;&gt;n4 -->
<g id="edge10" class="edge"><title>n3&#45;&gt;n4</title>
<path fill="none" stroke="#000000" d="M394.066,-65.2039C405.594,-64.8649 419.231,-64.4638 431.69,-64.0973"/>
<polygon fill="#000000" stroke="#000000" points="441.807,-63.7998 431.944,-68.5919 436.809,-63.9468 431.812,-64.0939 431.812,-64.0939 431.812,-64.0939 436.809,-63.9468 431.679,-59.5958 441.807,-63.7998 441.807,-63.7998"/>
<text text-anchor="middle" x="418" y="-65.4" font-family="Times,serif" font-size="14.00" fill="#000000">A</text>
</g>
<!-- n4&#45;&gt;n5 -->
<g id="edge12" class="edge"><title>n4&#45;&gt;n5</title>
<path fill="none" stroke="#000000" d="M494.358,-56.6014C506.989,-53.4141 522.546,-49.4884 536.68,-45.9219"/>
<polygon fill="#000000" stroke="#000000" points="546.658,-43.4041 538.063,-50.2141 541.81,-44.6275 536.962,-45.8508 536.962,-45.8508 536.962,-45.8508 541.81,-44.6275 535.861,-41.4876 546.658,-43.4041 546.658,-43.4041"/>
<text text-anchor="middle" x="520" y="-52.4" font-family="Times,serif" font-size="14.00" fill="#000000">A</text>
</g>
<!-- n6 -->
<g id="node23" class="node"><title>n6</title>
<ellipse fill="white" stroke="black" cx="717" cy="-36" rx="27" ry="18"/>
<text text-anchor="middle" x="717" y="-31.6" font-family="Times,serif" font-size="11.00">sweet</text>
</g>
<!-- n5&#45;&gt;n6 -->
<g id="edge14" class="edge"><title>n5&#45;&gt;n6</title>
<path fill="none" stroke="#000000" d="M608.348,-36C629.545,-36 657.327,-36 679.492,-36"/>
<polygon fill="#000000" stroke="#000000" points="689.551,-36 679.551,-40.5001 684.551,-36 679.551,-36.0001 679.551,-36.0001 679.551,-36.0001 684.551,-36 679.551,-31.5001 689.551,-36 689.551,-36"/>
<text text-anchor="middle" x="649" y="-37.4" font-family="Times,serif" font-size="14.00" fill="#000000">A, C, B</text>
</g>
<!-- n7 -->
<g id="node24" class="node"><title>n7</title>
<ellipse fill="white" stroke="black" cx="853" cy="-36" rx="27" ry="18"/>
<text text-anchor="middle" x="853" y="-31.6" font-family="Times,serif" font-size="11.00">with</text>
</g>
<!-- n6&#45;&gt;n7 -->
<g id="edge16" class="edge"><title>n6&#45;&gt;n7</title>
<path fill="none" stroke="#000000" d="M744.195,-36C764.672,-36 792.983,-36 815.593,-36"/>
<polygon fill="#000000" stroke="#000000" points="825.852,-36 815.852,-40.5001 820.852,-36 815.852,-36.0001 815.852,-36.0001 815.852,-36.0001 820.852,-36 815.852,-31.5001 825.852,-36 825.852,-36"/>
<text text-anchor="middle" x="785" y="-37.4" font-family="Times,serif" font-size="14.00" fill="#000000">A, C, B</text>
</g>
<!-- n7&#45;&gt;n11 -->
<g id="edge18" class="edge"><title>n7&#45;&gt;n11</title>
<path fill="none" stroke="#000000" d="M878.025,-43.2105C894.999,-48.1014 917.665,-54.6322 936.367,-60.0211"/>
<polygon fill="#000000" stroke="#000000" points="946.011,-62.7999 935.156,-64.3552 941.207,-61.4155 936.402,-60.0311 936.402,-60.0311 936.402,-60.0311 941.207,-61.4155 937.648,-55.707 946.011,-62.7999 946.011,-62.7999"/>
<text text-anchor="middle" x="912" y="-57.4" font-family="Times,serif" font-size="14.00" fill="#000000">C, B</text>
</g>
<!-- n7&#45;&gt;n12 -->
<g id="edge20" class="edge"><title>n7&#45;&gt;n12</title>
<path fill="none" stroke="#000000" d="M879.735,-32.975C908.838,-30.087 956.742,-26.5154 998,-29 1015.85,-30.075 1035.57,-32.3261 1052.07,-34.5135"/>
<polygon fill="#000000" stroke="#000000" points="1062.4,-35.9287 1051.88,-39.0294 1057.44,-35.2499 1052.49,-34.5711 1052.49,-34.5711 1052.49,-34.5711 1057.44,-35.2499 1053.1,-30.1127 1062.4,-35.9287 1062.4,-35.9287"/>
<text text-anchor="middle" x="971" y="-30.4" font-family="Times,serif" font-size="14.00" fill="#000000">A</text>
</g>
</g>
</svg>
