<?xml version="1.0" encoding="UTF-8" standalone="no"?>
<!DOCTYPE svg PUBLIC "-//W3C//DTD SVG 1.0//EN"
 "http://www.w3.org/TR/2001/REC-SVG-20010904/DTD/svg10.dtd" [
 <!ATTLIST svg xmlns:xlink CDATA #FIXED "http://www.w3.org/1999/xlink">
]>
<!-- Generated by Graphviz version 2.20.2 (Mon Mar 30 10:09:11 UTC 2009)
     For user: (tla) Tara Andrews -->
<!-- Title: test Pages: 1 -->
<svg width="2122pt" height="136pt"
 viewBox="0.00 0.00 2122.00 136.00" xmlns="http://www.w3.org/2000/svg" xmlns:xlink="http://www.w3.org/1999/xlink">
<g id="graph0" class="graph" transform="scale(1 1) rotate(0) translate(4 132)">
<title>test</title>
<polygon style="fill:white;stroke:white;" points="-4,4 -4,-132 2118,-132 2118,4 -4,4"/>
<!-- node_0 -->
<g id="node1" class="node"><title>node_0</title>
<ellipse style="fill:none;stroke:black;" cx="27" cy="-46" rx="27" ry="18"/>
<text text-anchor="middle" x="27" y="-41.9" style="font-family:Times New Roman;font-size:14.00;">#</text>
</g>
<!-- node_1 -->
<g id="node2" class="node"><title>node_1</title>
<ellipse style="fill:none;stroke:black;" cx="176" cy="-46" rx="38.2185" ry="18"/>
<text text-anchor="middle" x="176" y="-41.9" style="font-family:Times New Roman;font-size:14.00;">when</text>
</g>
<!-- node_0&#45;&gt;node_1 -->
<g id="edge2" class="edge"><title>node_0&#45;&gt;node_1</title>
<path style="fill:none;stroke:black;" d="M54,-46C74,-46 103,-46 128,-46"/>
<polygon style="fill:black;stroke:black;" points="128,-49.5001 138,-46 128,-42.5001 128,-49.5001"/>
<text text-anchor="middle" x="96" y="-49.9" style="font-family:Times New Roman;font-size:14.00;">A, B, C</text>
</g>
<!-- node_2 -->
<g id="node3" class="node"><title>node_2</title>
<ellipse style="fill:none;stroke:black;" cx="455" cy="-72" rx="173.916" ry="18"/>
<text text-anchor="middle" x="455" y="-67.9" style="font-family:Times New Roman;font-size:14.00;">april with his showers sweet with</text>
</g>
<!-- node_1&#45;&gt;node_2 -->
<g id="edge4" class="edge"><title>node_1&#45;&gt;node_2</title>
<path style="fill:none;stroke:black;" d="M213,-49C240,-52 277,-55 315,-59"/>
<polygon style="fill:black;stroke:black;" points="314.701,-62.4875 325,-60 315.398,-55.5222 314.701,-62.4875"/>
<text text-anchor="middle" x="247" y="-56.9" style="font-family:Times New Roman;font-size:14.00;">A</text>
</g>
<!-- node_8 -->
<g id="node4" class="node"><title>node_8</title>
<ellipse style="fill:none;stroke:black;" cx="455" cy="-18" rx="132.222" ry="18"/>
<text text-anchor="middle" x="455" y="-13.9" style="font-family:Times New Roman;font-size:14.00;">showers sweet with april</text>
</g>
<!-- node_1&#45;&gt;node_8 -->
<g id="edge6" class="edge"><title>node_1&#45;&gt;node_8</title>
<path style="fill:none;stroke:black;" d="M207,-36C215,-33 224,-31 232,-30 258,-26 286,-23 314,-21"/>
<polygon style="fill:black;stroke:black;" points="314.398,-24.4778 324,-20 313.701,-17.5125 314.398,-24.4778"/>
<text text-anchor="middle" x="247" y="-33.9" style="font-family:Times New Roman;font-size:14.00;">B, C</text>
</g>
<!-- node_12 -->
<g id="node5" class="node"><title>node_12</title>
<ellipse style="fill:none;stroke:black;" cx="728" cy="-46" rx="30.7734" ry="18"/>
<text text-anchor="middle" x="728" y="-41.9" style="font-family:Times New Roman;font-size:14.00;">fruit</text>
</g>
<!-- node_2&#45;&gt;node_12 -->
<g id="edge28" class="edge"><title>node_2&#45;&gt;node_12</title>
<path style="fill:none;stroke:black;" d="M584,-60C621,-56 659,-53 687,-50"/>
<polygon style="fill:black;stroke:black;" points="687.398,-53.4778 697,-49 686.701,-46.5125 687.398,-53.4778"/>
<text text-anchor="middle" x="663" y="-56.9" style="font-family:Times New Roman;font-size:14.00;">A</text>
</g>
<!-- node_8&#45;&gt;node_12 -->
<g id="edge48" class="edge"><title>node_8&#45;&gt;node_12</title>
<path style="fill:none;stroke:black;" d="M587,-19C617,-20 649,-24 678,-29 683,-30 688,-31 692,-32"/>
<polygon style="fill:black;stroke:black;" points="691.416,-35.4788 702,-35 693.427,-28.7741 691.416,-35.4788"/>
<text text-anchor="middle" x="663" y="-32.9" style="font-family:Times New Roman;font-size:14.00;">B, C</text>
</g>
<!-- node_13 -->
<g id="node6" class="node"><title>node_13</title>
<ellipse style="fill:none;stroke:black;" cx="871" cy="-46" rx="27.1004" ry="18"/>
<text text-anchor="middle" x="871" y="-41.9" style="font-family:Times New Roman;font-size:14.00;">the</text>
</g>
<!-- node_12&#45;&gt;node_13 -->
<g id="edge8" class="edge"><title>node_12&#45;&gt;node_13</title>
<path style="fill:none;stroke:black;" d="M760,-46C782,-46 811,-46 834,-46"/>
<polygon style="fill:black;stroke:black;" points="834,-49.5001 844,-46 834,-42.5001 834,-49.5001"/>
<text text-anchor="middle" x="802" y="-49.9" style="font-family:Times New Roman;font-size:14.00;">A, B, C</text>
</g>
<!-- node_14 -->
<g id="node7" class="node"><title>node_14</title>
<ellipse style="fill:none;stroke:black;" cx="1014" cy="-77" rx="48.8383" ry="18"/>
<text text-anchor="middle" x="1014" y="-72.9" style="font-family:Times New Roman;font-size:14.00;">drought</text>
</g>
<!-- node_13&#45;&gt;node_14 -->
<g id="edge10" class="edge"><title>node_13&#45;&gt;node_14</title>
<path style="fill:none;stroke:black;" d="M897,-52C915,-56 939,-61 961,-66"/>
<polygon style="fill:black;stroke:black;" points="960.508,-69.4708 971,-68 961.881,-62.6067 960.508,-69.4708"/>
<text text-anchor="middle" x="931" y="-64.9" style="font-family:Times New Roman;font-size:14.00;">A, C</text>
</g>
<!-- node_15 -->
<g id="node8" class="node"><title>node_15</title>
<ellipse style="fill:none;stroke:black;" cx="1014" cy="-23" rx="40.9981" ry="18"/>
<text text-anchor="middle" x="1014" y="-18.9" style="font-family:Times New Roman;font-size:14.00;">march</text>
</g>
<!-- node_13&#45;&gt;node_15 -->
<g id="edge12" class="edge"><title>node_13&#45;&gt;node_15</title>
<path style="fill:none;stroke:black;" d="M896,-38C902,-37 909,-35 916,-34 931,-31 948,-29 963,-27"/>
<polygon style="fill:black;stroke:black;" points="963.398,-30.4778 973,-26 962.701,-23.5125 963.398,-30.4778"/>
<text text-anchor="middle" x="931" y="-37.9" style="font-family:Times New Roman;font-size:14.00;">B</text>
</g>
<!-- node_16 -->
<g id="node9" class="node"><title>node_16</title>
<ellipse style="fill:none;stroke:black;" cx="1157" cy="-51" rx="27" ry="18"/>
<text text-anchor="middle" x="1157" y="-46.9" style="font-family:Times New Roman;font-size:14.00;">of</text>
</g>
<!-- node_14&#45;&gt;node_16 -->
<g id="edge14" class="edge"><title>node_14&#45;&gt;node_16</title>
<path style="fill:none;stroke:black;" d="M1058,-69C1078,-65 1102,-61 1121,-58"/>
<polygon style="fill:black;stroke:black;" points="1121.88,-61.3933 1131,-56 1120.51,-54.5292 1121.88,-61.3933"/>
<text text-anchor="middle" x="1097" y="-66.9" style="font-family:Times New Roman;font-size:14.00;">A, C</text>
</g>
<!-- node_15&#45;&gt;node_16 -->
<g id="edge16" class="edge"><title>node_15&#45;&gt;node_16</title>
<path style="fill:none;stroke:black;" d="M1054,-27C1072,-29 1093,-33 1112,-37 1116,-38 1119,-38 1123,-39"/>
<polygon style="fill:black;stroke:black;" points="1122.42,-42.4788 1133,-42 1124.43,-35.7741 1122.42,-42.4788"/>
<text text-anchor="middle" x="1097" y="-40.9" style="font-family:Times New Roman;font-size:14.00;">B</text>
</g>
<!-- node_17 -->
<g id="node10" class="node"><title>node_17</title>
<ellipse style="fill:none;stroke:black;" cx="1300" cy="-82" rx="40.9981" ry="18"/>
<text text-anchor="middle" x="1300" y="-77.9" style="font-family:Times New Roman;font-size:14.00;">march</text>
</g>
<!-- node_16&#45;&gt;node_17 -->
<g id="edge18" class="edge"><title>node_16&#45;&gt;node_17</title>
<path style="fill:none;stroke:black;" d="M1183,-57C1202,-61 1230,-67 1253,-72"/>
<polygon style="fill:black;stroke:black;" points="1252.51,-75.4708 1263,-74 1253.88,-68.6067 1252.51,-75.4708"/>
<text text-anchor="middle" x="1217" y="-69.9" style="font-family:Times New Roman;font-size:14.00;">A, C</text>
</g>
<!-- node_18 -->
<g id="node11" class="node"><title>node_18</title>
<ellipse style="fill:none;stroke:black;" cx="1300" cy="-28" rx="48.8383" ry="18"/>
<text text-anchor="middle" x="1300" y="-23.9" style="font-family:Times New Roman;font-size:14.00;">drought</text>
</g>
<!-- node_16&#45;&gt;node_18 -->
<g id="edge20" class="edge"><title>node_16&#45;&gt;node_18</title>
<path style="fill:none;stroke:black;" d="M1182,-43C1188,-42 1195,-40 1202,-39 1214,-37 1228,-34 1241,-33"/>
<polygon style="fill:black;stroke:black;" points="1241.4,-36.4778 1251,-32 1240.7,-29.5125 1241.4,-36.4778"/>
<text text-anchor="middle" x="1217" y="-42.9" style="font-family:Times New Roman;font-size:14.00;">B</text>
</g>
<!-- node_19 -->
<g id="node12" class="node"><title>node_19</title>
<ellipse style="fill:none;stroke:black;" cx="1444" cy="-56" rx="27.7953" ry="18"/>
<text text-anchor="middle" x="1444" y="-51.9" style="font-family:Times New Roman;font-size:14.00;">has</text>
</g>
<!-- node_17&#45;&gt;node_19 -->
<g id="edge22" class="edge"><title>node_17&#45;&gt;node_19</title>
<path style="fill:none;stroke:black;" d="M1338,-75C1359,-71 1385,-66 1407,-63"/>
<polygon style="fill:black;stroke:black;" points="1407.88,-66.3933 1417,-61 1406.51,-59.5292 1407.88,-66.3933"/>
<text text-anchor="middle" x="1383" y="-71.9" style="font-family:Times New Roman;font-size:14.00;">A, C</text>
</g>
<!-- node_18&#45;&gt;node_19 -->
<g id="edge24" class="edge"><title>node_18&#45;&gt;node_19</title>
<path style="fill:none;stroke:black;" d="M1347,-34C1363,-36 1382,-39 1398,-43 1401,-44 1405,-44 1408,-45"/>
<polygon style="fill:black;stroke:black;" points="1407.42,-48.4788 1418,-48 1409.43,-41.7741 1407.42,-48.4788"/>
<text text-anchor="middle" x="1383" y="-46.9" style="font-family:Times New Roman;font-size:14.00;">B</text>
</g>
<!-- node_20 -->
<g id="node13" class="node"><title>node_20</title>
<ellipse style="fill:none;stroke:black;" cx="1602" cy="-56" rx="45.8622" ry="18"/>
<text text-anchor="middle" x="1602" y="-51.9" style="font-family:Times New Roman;font-size:14.00;">pierced</text>
</g>
<!-- node_19&#45;&gt;node_20 -->
<g id="edge26" class="edge"><title>node_19&#45;&gt;node_20</title>
<path style="fill:none;stroke:black;" d="M1472,-56C1492,-56 1521,-56 1546,-56"/>
<polygon style="fill:black;stroke:black;" points="1546,-59.5001 1556,-56 1546,-52.5001 1546,-59.5001"/>
<text text-anchor="middle" x="1514" y="-59.9" style="font-family:Times New Roman;font-size:14.00;">A, B, C</text>
</g>
<!-- node_21 -->
<g id="node14" class="node"><title>node_21</title>
<ellipse style="fill:none;stroke:black;" cx="1728" cy="-110" rx="32.8565" ry="18"/>
<text text-anchor="middle" x="1728" y="-105.9" style="font-family:Times New Roman;font-size:14.00;">unto</text>
</g>
<!-- node_20&#45;&gt;node_21 -->
<g id="edge30" class="edge"><title>node_20&#45;&gt;node_21</title>
<path style="fill:none;stroke:black;" d="M1633,-69C1651,-77 1674,-87 1693,-95"/>
<polygon style="fill:black;stroke:black;" points="1691.44,-98.1369 1702,-99 1694.28,-91.7402 1691.44,-98.1369"/>
<text text-anchor="middle" x="1671" y="-88.9" style="font-family:Times New Roman;font-size:14.00;">A</text>
</g>
<!-- node_22 -->
<g id="node15" class="node"><title>node_22</title>
<ellipse style="fill:none;stroke:black;" cx="1728" cy="-56" rx="27" ry="18"/>
<text text-anchor="middle" x="1728" y="-51.9" style="font-family:Times New Roman;font-size:14.00;">to</text>
</g>
<!-- node_20&#45;&gt;node_22 -->
<g id="edge32" class="edge"><title>node_20&#45;&gt;node_22</title>
<path style="fill:none;stroke:black;" d="M1648,-56C1662,-56 1677,-56 1691,-56"/>
<polygon style="fill:black;stroke:black;" points="1691,-59.5001 1701,-56 1691,-52.5001 1691,-59.5001"/>
<text text-anchor="middle" x="1671" y="-59.9" style="font-family:Times New Roman;font-size:14.00;">B</text>
</g>
<!-- node_23 -->
<g id="node16" class="node"><title>node_23</title>
<ellipse style="fill:none;stroke:black;" cx="1835" cy="-56" rx="27.1004" ry="18"/>
<text text-anchor="middle" x="1835" y="-51.9" style="font-family:Times New Roman;font-size:14.00;">the</text>
</g>
<!-- node_20&#45;&gt;node_23 -->
<g id="edge34" class="edge"><title>node_20&#45;&gt;node_23</title>
<path style="fill:none;stroke:black;" d="M1626,-41C1644,-30 1670,-18 1694,-12 1724,-6 1733,-4 1762,-12 1779,-17 1796,-27 1810,-36"/>
<polygon style="fill:black;stroke:black;" points="1807.9,-38.8 1818,-42 1812.1,-33.2 1807.9,-38.8"/>
<text text-anchor="middle" x="1728" y="-18.9" style="font-family:Times New Roman;font-size:14.00;">C</text>
</g>
<!-- node_21&#45;&gt;node_23 -->
<g id="edge36" class="edge"><title>node_21&#45;&gt;node_23</title>
<path style="fill:none;stroke:black;" d="M1753,-98C1768,-90 1788,-80 1804,-72"/>
<polygon style="fill:black;stroke:black;" points="1805.96,-74.916 1813,-67 1802.56,-68.7969 1805.96,-74.916"/>
<text text-anchor="middle" x="1785" y="-85.9" style="font-family:Times New Roman;font-size:14.00;">A</text>
</g>
<!-- node_22&#45;&gt;node_23 -->
<g id="edge38" class="edge"><title>node_22&#45;&gt;node_23</title>
<path style="fill:none;stroke:black;" d="M1755,-56C1768,-56 1784,-56 1798,-56"/>
<polygon style="fill:black;stroke:black;" points="1798,-59.5001 1808,-56 1798,-52.5001 1798,-59.5001"/>
<text text-anchor="middle" x="1785" y="-59.9" style="font-family:Times New Roman;font-size:14.00;">B</text>
</g>
<!-- node_24 -->
<g id="node17" class="node"><title>node_24</title>
<ellipse style="fill:none;stroke:black;" cx="1961" cy="-87" rx="30.7734" ry="18"/>
<text text-anchor="middle" x="1961" y="-82.9" style="font-family:Times New Roman;font-size:14.00;">root</text>
</g>
<!-- node_23&#45;&gt;node_24 -->
<g id="edge40" class="edge"><title>node_23&#45;&gt;node_24</title>
<path style="fill:none;stroke:black;" d="M1860,-62C1878,-66 1902,-72 1922,-77"/>
<polygon style="fill:black;stroke:black;" points="1921.42,-80.4788 1932,-80 1923.43,-73.7741 1921.42,-80.4788"/>
<text text-anchor="middle" x="1895" y="-76.9" style="font-family:Times New Roman;font-size:14.00;">A, B</text>
</g>
<!-- node_26 -->
<g id="node18" class="node"><title>node_26</title>
<ellipse style="fill:none;stroke:black;" cx="1961" cy="-33" rx="32.157" ry="18"/>
<text text-anchor="middle" x="1961" y="-28.9" style="font-family:Times New Roman;font-size:14.00;">rood</text>
</g>
<!-- node_23&#45;&gt;node_26 -->
<g id="edge42" class="edge"><title>node_23&#45;&gt;node_26</title>
<path style="fill:none;stroke:black;" d="M1860,-49C1866,-47 1873,-45 1880,-44 1892,-41 1906,-39 1919,-37"/>
<polygon style="fill:black;stroke:black;" points="1919.4,-40.4778 1929,-36 1918.7,-33.5125 1919.4,-40.4778"/>
<text text-anchor="middle" x="1895" y="-47.9" style="font-family:Times New Roman;font-size:14.00;">C</text>
</g>
<!-- node_27 -->
<g id="node19" class="node"><title>node_27</title>
<ellipse style="fill:none;stroke:black;" cx="2087" cy="-61" rx="27" ry="18"/>
<text text-anchor="middle" x="2087" y="-56.9" style="font-family:Times New Roman;font-size:14.00;">#</text>
</g>
<!-- node_24&#45;&gt;node_27 -->
<g id="edge44" class="edge"><title>node_24&#45;&gt;node_27</title>
<path style="fill:none;stroke:black;" d="M1991,-81C2009,-77 2032,-72 2051,-68"/>
<polygon style="fill:black;stroke:black;" points="2051.88,-71.3933 2061,-66 2050.51,-64.5292 2051.88,-71.3933"/>
<text text-anchor="middle" x="2027" y="-78.9" style="font-family:Times New Roman;font-size:14.00;">A, B</text>
</g>
<!-- node_26&#45;&gt;node_27 -->
<g id="edge46" class="edge"><title>node_26&#45;&gt;node_27</title>
<path style="fill:none;stroke:black;" d="M1992,-38C2007,-41 2026,-45 2042,-49 2045,-50 2049,-50 2052,-51"/>
<polygon style="fill:black;stroke:black;" points="2051.42,-54.4788 2062,-54 2053.43,-47.7741 2051.42,-54.4788"/>
<text text-anchor="middle" x="2027" y="-52.9" style="font-family:Times New Roman;font-size:14.00;">C</text>
</g>
</g>
</svg>
